<?xml version="1.0" encoding="UTF-8" standalone="no"?>
<!-- Created with Inkscape (http://www.inkscape.org/) -->

<svg
   xmlns:dc="http://purl.org/dc/elements/1.1/"
   xmlns:cc="http://creativecommons.org/ns#"
   xmlns:rdf="http://www.w3.org/1999/02/22-rdf-syntax-ns#"
   xmlns:svg="http://www.w3.org/2000/svg"
   xmlns="http://www.w3.org/2000/svg"
   xmlns:sodipodi="http://sodipodi.sourceforge.net/DTD/sodipodi-0.dtd"
   xmlns:inkscape="http://www.inkscape.org/namespaces/inkscape"
   width="132.56654"
   height="34.58046"
   viewBox="0 0 35.074897 9.1494128"
   version="1.1"
   id="svg375"
   inkscape:version="0.92.0 r15299"
   sodipodi:docname="britbox.svg">
  <defs
     id="defs369" />
  <sodipodi:namedview
     id="base"
     pagecolor="#ffffff"
     bordercolor="#666666"
     borderopacity="1.0"
     inkscape:pageopacity="0.0"
     inkscape:pageshadow="2"
     inkscape:zoom="6.8178431"
     inkscape:cx="65.783284"
     inkscape:cy="16.790276"
     inkscape:document-units="mm"
     inkscape:current-layer="layer1"
     showgrid="false"
     fit-margin-top="0"
     fit-margin-left="0"
     fit-margin-right="0"
     fit-margin-bottom="0"
     units="px"
     inkscape:window-width="1280"
     inkscape:window-height="744"
     inkscape:window-x="-4"
     inkscape:window-y="-4"
     inkscape:window-maximized="1" />
  <metadata
     id="metadata372">
    <rdf:RDF>
      <cc:Work
         rdf:about="">
        <dc:format>image/svg+xml</dc:format>
        <dc:type
           rdf:resource="http://purl.org/dc/dcmitype/StillImage" />
        <dc:title></dc:title>
      </cc:Work>
    </rdf:RDF>
  </metadata>
  <g
     inkscape:label="Layer 1"
     inkscape:groupmode="layer"
     id="layer1"
     transform="translate(124.7504,-209.13826)">
    <g
       id="g399"
       transform="translate(0.13229249,-0.13228858)">
      <path
         id="path378"
         d="m -116.79494,212.95384 v -0.8543 h -0.68767 c -0.15456,0 -0.28026,0.12606 -0.28026,0.28056 v 5.62892 h 0.96799 v -2.80181 c 0,-1.17973 0.95996,-2.13938 2.13968,-2.13938 h 0.0255 v -0.96823 h -0.0255 c -0.80226,0 -1.55948,0.30308 -2.13968,0.8543 m 2.93717,-0.57386 v 5.62922 h 0.96793 v -5.90972 h -0.68767 c -0.15456,0 -0.28026,0.126 -0.28026,0.2805 m -0.18885,-2.30438 0.67257,0.67257 0.67306,-0.67257 -0.67306,-0.67282 m 3.11914,6.54208 v -2.87721 h 1.57953 v -0.96829 h -1.57953 v -2.54679 h -0.68767 c -0.15456,0 -0.28026,0.1257 -0.28026,0.28014 v 2.26677 h -0.91685 v 0.96829 h 0.91685 v 2.87722 c 0,0.88267 0.59264,1.66845 1.44103,1.91025 l 1.09417,0.31274 0.27307,-0.93073 -1.10147,-0.31275 c -0.43494,-0.12413 -0.73887,-0.52682 -0.73887,-0.97964 m -11.38788,1.2491 c -1.17996,0 -2.13968,-0.95996 -2.13968,-2.13944 0,-1.17996 0.95972,-2.13968 2.13968,-2.13968 1.17997,0 2.13968,0.95972 2.13968,2.13968 0,1.17948 -0.95971,2.13944 -2.13968,2.13944 m 0,-5.24705 c -0.31111,0 -0.63049,0.0517 -0.94909,0.15396 -0.39763,0.11881 -1.0321,0.41743 -1.19059,0.49302 v -3.04114 h -0.68767 c -0.15431,-1.2e-4 -0.28032,0.12534 -0.28032,0.27984 v 5.22193 c 0,1.71325 1.39406,3.10736 3.10761,3.10736 1.71344,0 3.10761,-1.39405 3.10761,-3.10736 0,-1.71374 -1.39405,-3.10761 -3.10761,-3.10761 m 16.79601,5.24705 c -1.17997,0 -2.13968,-0.95996 -2.13968,-2.13944 0,-1.17996 0.95971,-2.13968 2.13968,-2.13968 1.17972,0 2.13944,0.95972 2.13944,2.13968 0,1.17948 -0.95978,2.13944 -2.1395,2.13944 m 0,-5.24705 c -0.31111,0 -0.63044,0.0517 -0.94909,0.15396 -0.39787,0.11881 -1.03241,0.41743 -1.19059,0.49302 v -3.04114 h -0.68767 c -0.15456,0 -0.28026,0.12546 -0.28026,0.27996 v 5.22193 c 0,1.71325 1.39393,3.10737 3.10767,3.10737 1.71343,0 3.10736,-1.39406 3.10736,-3.10737 0,-1.71374 -1.39381,-3.10761 -3.1073,-3.10761 m 14.890819,0.51198 0.0157,-0.0205 -0.779317,-0.58986 -1.854711,2.41608 -1.839135,-2.39628 -0.01546,-0.0199 -0.779437,0.59004 2.017723,2.6292 -2.002026,2.60819 -0.0157,0.0202 0.779437,0.59143 1.854712,-2.41667 1.85459,2.41667 0.779438,-0.59137 -2.017723,-2.62835"
         inkscape:connector-curvature="0"
         style="fill:#000000;fill-rule:evenodd;stroke-width:0.06037472" />
      <path
         id="path380"
         d="m -98.072799,217.20754 c -1.179722,0 -2.139441,-0.95996 -2.139441,-2.13944 0,-1.1799 0.959719,-2.13956 2.139441,-2.13956 1.179963,0 2.13968,0.95966 2.13968,2.13968 0,1.17942 -0.959717,2.13938 -2.13968,2.13938 m 0,-5.24704 c -1.713435,0 -3.107371,1.39381 -3.107371,3.10748 0,1.71332 1.393876,3.10773 3.107371,3.10773 1.713736,0 3.107607,-1.39441 3.107607,-3.10767 0,-1.71367 -1.393871,-3.10748 -3.107607,-3.10748"
         inkscape:connector-curvature="0"
         style="fill:#000000;fill-rule:evenodd;stroke-width:0.06037472" />
    </g>
  </g>
</svg>
