<?xml version="1.0" encoding="UTF-8" standalone="no"?>
<!-- Created with Inkscape (http://www.inkscape.org/) -->

<svg
   xmlns:dc="http://purl.org/dc/elements/1.1/"
   xmlns:cc="http://creativecommons.org/ns#"
   xmlns:rdf="http://www.w3.org/1999/02/22-rdf-syntax-ns#"
   xmlns:svg="http://www.w3.org/2000/svg"
   xmlns="http://www.w3.org/2000/svg"
   xmlns:sodipodi="http://sodipodi.sourceforge.net/DTD/sodipodi-0.dtd"
   xmlns:inkscape="http://www.inkscape.org/namespaces/inkscape"
   width="530.59998"
   height="101.99999"
   viewBox="0 0 140.38791 26.987498"
   version="1.1"
   id="svg8"
   inkscape:version="0.92.0 r15299"
   sodipodi:docname="curiosity stream logo.svg">
  <defs
     id="defs2">
	
	
	
	
	
	
	
	
	
	
	
	
	
	
	
	
</defs>
  <sodipodi:namedview
     id="base"
     pagecolor="#ffffff"
     bordercolor="#666666"
     borderopacity="1.0"
     inkscape:pageopacity="0.0"
     inkscape:pageshadow="2"
     inkscape:zoom="1.4893222"
     inkscape:cx="324.44289"
     inkscape:cy="49.999999"
     inkscape:document-units="mm"
     inkscape:current-layer="layer1"
     showgrid="false"
     fit-margin-top="0"
     fit-margin-left="0"
     fit-margin-right="0"
     fit-margin-bottom="0"
     units="px"
     inkscape:window-width="1280"
     inkscape:window-height="744"
     inkscape:window-x="-4"
     inkscape:window-y="-4"
     inkscape:window-maximized="1" />
  <metadata
     id="metadata5">
    <rdf:RDF>
      <cc:Work
         rdf:about="">
        <dc:format>image/svg+xml</dc:format>
        <dc:type
           rdf:resource="http://purl.org/dc/dcmitype/StillImage" />
        <dc:title></dc:title>
      </cc:Work>
    </rdf:RDF>
  </metadata>
  <g
     inkscape:label="Layer 1"
     inkscape:groupmode="layer"
     id="layer1"
     transform="translate(-31.570462,-314.99167)">
    <g
       id="g120"
       transform="translate(0.2645811,-0.26458576)">
      <path
         id="path18"
         d="m 118.19504,329.78188 c 0,2.54 -2.11666,4.63021 -4.68312,4.63021 -2.59292,0 -4.68313,-2.06375 -4.68313,-4.63021 h 3.14855 c 0,0.84666 0.68791,1.56104 1.56104,1.56104 0.87312,0 1.5875,-0.71438 1.5875,-1.56104 0,-0.34396 -0.13229,-0.71438 -0.34396,-0.9525 l -4.84188,-5.66209 c -0.68791,-0.79375 -1.11125,-1.87854 -1.11125,-3.01625 0,-2.54 2.11667,-4.6302 4.68313,-4.6302 2.59292,0 4.68312,2.06375 4.68312,4.6302 h -3.09562 c 0,-0.84666 -0.71438,-1.53458 -1.5875,-1.53458 -0.87313,0 -1.56104,0.68792 -1.56104,1.53458 0,0.37042 0.10583,0.71438 0.3175,0.9525 l 4.84187,5.66209 c 0.71438,0.79375 1.08479,1.85208 1.08479,3.01625 z"
         class="st0"
         inkscape:connector-curvature="0"
         style="fill:#000000;stroke-width:0.26458332" />
      <path
         id="path20"
         d="m 137.40379,328.75 v 1.40229 c 0,0.7673 0.68792,1.42875 1.56105,1.42875 0.87312,0 1.5875,-0.66145 1.5875,-1.42875 h 3.14854 c 0,2.32834 -2.11667,4.23334 -4.73604,4.23334 -2.59292,0 -4.68313,-1.905 -4.68313,-4.23334 v -5.63562 c 0,-2.32833 2.11667,-4.20688 4.68313,-4.20688 2.61937,0 4.73604,1.87855 4.73604,4.20688 V 328.75 Z m 1.56105,-5.60916 c -0.87313,0 -1.56105,0.60854 -1.56105,1.40229 v 1.42875 h 3.09563 v -1.45521 c 0.0265,-0.76729 -0.66146,-1.37583 -1.53458,-1.37583 z"
         class="st0"
         inkscape:connector-curvature="0"
         style="fill:#000000;stroke-width:0.26458332" />
      <path
         id="path22"
         d="m 149.68046,334.35917 c -2.59292,0 -4.73604,-1.87854 -4.73604,-4.20688 0,-2.32833 2.14312,-4.20687 4.73604,-4.20687 h 1.56104 v -1.42875 c 0,-0.76729 -0.68791,-1.40229 -1.56104,-1.40229 -0.87312,0 -1.5875,0.60854 -1.5875,1.40229 h -3.14854 c 0,-2.32833 2.14312,-4.20688 4.73604,-4.20688 2.59292,0 4.70958,1.87855 4.70958,4.20688 v 5.63562 c -0.0265,2.32834 -2.14312,4.20688 -4.70958,4.20688 z m -1.5875,-4.20688 c 0,0.7673 0.71438,1.4023 1.5875,1.4023 0.87313,0 1.56104,-0.60855 1.56104,-1.4023 v -1.42875 h -1.56104 c -0.87312,0 -1.5875,0.66146 -1.5875,1.42875 z"
         class="st0"
         inkscape:connector-curvature="0"
         style="fill:#000000;stroke-width:0.26458332" />
      <path
         id="path24"
         d="m 166.74609,320.28334 c 2.59291,0 4.68312,1.87854 4.68312,4.20687 v 9.8425 h -3.14854 v -9.8425 c 0,-0.76729 -0.68792,-1.42875 -1.56104,-1.42875 -0.87313,0 -1.5875,0.66146 -1.5875,1.42875 v 9.8425 h -3.14854 v -9.8425 c 0,-0.76729 -0.68792,-1.42875 -1.56105,-1.42875 -0.87312,0 -1.5875,0.66146 -1.5875,1.42875 v 9.8425 h -3.09562 v -9.8425 c 0,-2.32833 2.11667,-4.20687 4.68312,-4.20687 1.21709,0 2.30188,0.39687 3.14855,1.05833 0.87312,-0.66146 1.98437,-1.05833 3.175,-1.05833 z"
         class="st0"
         inkscape:connector-curvature="0"
         style="fill:#000000;stroke-width:0.26458332" />
      <path
         id="path26"
         d="m 130.18067,321.28875 v -0.87312 h -3.22792 v 13.89062 h 3.22792 l -0.0265,-8.99583 c 0,-1.95792 3.30729,-2.09021 3.30729,-2.09021 v -2.83104 c 0,0 -2.35479,0.21167 -3.28083,0.89958 z"
         class="st0"
         inkscape:connector-curvature="0"
         style="fill:#000000;stroke-width:0.26458332" />
      <g
         transform="matrix(0.26458333,0,0,0.26458333,23.447754,302.29167)"
         id="g32">
		<path
   id="path28"
   d="m 305.6,68.3 h 11.8 v 37.8 c 0,7 -4.9,13.1 -11.8,15.2 v 11.9 h -11.8 v -11.9 c -6.9,-2.1 -11.6,-8.2 -11.6,-15.2 V 68.3 h 11.6 v 37.8 c 0,3 2.7,5.4 5.9,5.4 3.2,0 5.8,-2.4 5.8,-5.4 V 68.3 Z"
   class="st1"
   inkscape:connector-curvature="0"
   style="fill:#fbbd4c" />

		<path
   id="path30"
   d="m 306.1,143.6 c 0,3.5 -2.9,6.4 -6.4,6.4 -3.5,0 -6.4,-2.9 -6.4,-6.4 0,-3.5 2.9,-6.4 6.4,-6.4 3.5,0 6.4,2.8 6.4,6.4 z"
   class="st1"
   inkscape:connector-curvature="0"
   style="fill:#fbbd4c" />

	</g>
      <path
         id="path34"
         d="m 36.227129,334.35917 c -2.566458,0 -4.656667,-2.09021 -4.656667,-4.65667 v -9.33979 c 0,-2.56646 2.090209,-4.68312 4.656667,-4.68312 2.566458,0 4.656666,2.11666 4.656666,4.68312 h -3.122083 c 0,-0.84667 -0.687917,-1.56104 -1.534583,-1.56104 -0.846667,0 -1.561042,0.71437 -1.561042,1.56104 v 9.33979 c 0,0.84667 0.714375,1.53459 1.561042,1.53459 0.846666,0 1.534583,-0.68792 1.534583,-1.53459 h 3.122083 c -0.02646,2.56646 -2.116666,4.65667 -4.656666,4.65667 z"
         class="st0"
         inkscape:connector-curvature="0"
         style="fill:#000000;stroke-width:0.26458332" />
      <path
         id="path36"
         d="m 46.916295,334.41209 c -2.592916,0 -4.683125,-1.87855 -4.683125,-4.23334 v -9.81604 h 3.122084 v 9.81604 c 0,0.76729 0.687916,1.42875 1.561041,1.42875 0.846667,0 1.534584,-0.66146 1.534584,-1.42875 v -9.81604 h 3.122083 v 9.81604 c 0,2.35479 -2.090208,4.23334 -4.656667,4.23334 z"
         class="st0"
         inkscape:connector-curvature="0"
         style="fill:#000000;stroke-width:0.26458332" />
      <rect
         id="rect38"
         height="13.943542"
         width="3.0691667"
         class="st0"
         y="320.3627"
         x="60.277752"
         style="fill:#000000;stroke-width:0.26458332" />
      <path
         id="path40"
         d="m 55.991504,321.23584 v -0.87313 h -3.069167 v 13.94354 h 3.069167 v -9.10166 c 0,-1.905 3.148541,-2.06375 3.148541,-2.06375 v -2.77813 c -0.02646,0 -2.248958,0.21167 -3.148541,0.87313 z"
         class="st0"
         inkscape:connector-curvature="0"
         style="fill:#000000;stroke-width:0.26458332" />
      <path
         id="path42"
         d="m 69.511712,334.41209 c -2.566459,0 -4.656667,-1.87855 -4.656667,-4.23334 v -5.63562 c 0,-2.32834 2.090208,-4.20688 4.656667,-4.20688 2.566458,0 4.656666,1.87854 4.656666,4.20688 v 5.63562 c 0,2.35479 -2.090208,4.23334 -4.656666,4.23334 z m 0,-11.2448 c -0.846667,0 -1.534584,0.60855 -1.534584,1.4023 v 5.63562 c 0,0.76729 0.687917,1.42875 1.534584,1.42875 0.846666,0 1.534583,-0.66146 1.534583,-1.42875 v -5.66208 c 0.02646,-0.76729 -0.661458,-1.37584 -1.534583,-1.37584 z"
         class="st0"
         inkscape:connector-curvature="0"
         style="fill:#000000;stroke-width:0.26458332" />
      <path
         id="path44"
         d="m 80.227337,325.99834 c 2.566458,0 4.656666,1.87854 4.656666,4.20687 0,2.35479 -2.090208,4.23333 -4.656666,4.23333 -2.592917,0 -4.683125,-1.87854 -4.683125,-4.23333 h 3.122083 c 0,0.79375 0.687917,1.42875 1.561042,1.42875 0.846666,0 1.534583,-0.60854 1.534583,-1.42875 0,-0.76729 -0.687917,-1.40229 -1.561042,-1.40229 -2.566458,0 -4.656666,-1.87854 -4.656666,-4.20688 0,-2.35479 2.090208,-4.23333 4.683125,-4.23333 2.566458,0 4.656666,1.87854 4.656666,4.23333 H 81.76192 c 0,-0.79375 -0.687917,-1.42875 -1.534583,-1.42875 -0.899584,0 -1.561042,0.60855 -1.561042,1.42875 0,0.79375 0.661458,1.4023 1.561042,1.4023 z"
         class="st0"
         inkscape:connector-curvature="0"
         style="fill:#000000;stroke-width:0.26458332" />
      <rect
         id="rect46"
         height="13.943542"
         width="3.0691667"
         class="st0"
         y="320.3627"
         x="86.074631"
         style="fill:#000000;stroke-width:0.26458332" />
      <path
         id="path48"
         d="m 95.282128,331.18417 h 1.534583 v 3.12208 h -1.534583 c -2.566458,0 -4.656667,-2.09021 -4.656667,-4.65666 v -14.02292 h 3.069167 v 4.73604 h 3.122083 v 3.04271 h -3.122083 v 6.24417 c 0,0.84666 0.714375,1.53458 1.5875,1.53458 z"
         class="st0"
         inkscape:connector-curvature="0"
         style="fill:#000000;stroke-width:0.26458332" />
      <path
         id="path50"
         d="m 124.06879,331.18417 h 1.53459 v 3.12208 h -1.53459 c -2.56645,0 -4.65666,-2.09021 -4.65666,-4.65666 v -14.02292 h 3.06916 v 4.73604 h 3.12209 v 3.04271 h -3.12209 v 6.24417 c 0,0.84666 0.74084,1.53458 1.5875,1.53458 z"
         class="st0"
         inkscape:connector-curvature="0"
         style="fill:#000000;stroke-width:0.26458332" />
    </g>
  </g>
  <style
     id="style10"
     type="text/css">
	.st0{fill:#FFFFFF;}
	.st1{fill:#FBBD4C;}
</style>
</svg>
