<?xml version="1.0" encoding="UTF-8" standalone="no"?>
<!-- Created with Inkscape (http://www.inkscape.org/) -->

<svg
   xmlns:dc="http://purl.org/dc/elements/1.1/"
   xmlns:cc="http://creativecommons.org/ns#"
   xmlns:rdf="http://www.w3.org/1999/02/22-rdf-syntax-ns#"
   xmlns:svg="http://www.w3.org/2000/svg"
   xmlns="http://www.w3.org/2000/svg"
   xmlns:sodipodi="http://sodipodi.sourceforge.net/DTD/sodipodi-0.dtd"
   xmlns:inkscape="http://www.inkscape.org/namespaces/inkscape"
   width="213.51849mm"
   height="65.441788mm"
   viewBox="0 0 213.51849 65.441788"
   version="1.1"
   id="svg328"
   inkscape:version="0.92.0 r15299"
   sodipodi:docname="mubi 2020.svg">
  <defs
     id="defs322" />
  <sodipodi:namedview
     id="base"
     pagecolor="#ffffff"
     bordercolor="#666666"
     borderopacity="1.0"
     inkscape:pageopacity="0.0"
     inkscape:pageshadow="2"
     inkscape:zoom="1.1220354"
     inkscape:cx="399.71997"
     inkscape:cy="119.89"
     inkscape:document-units="mm"
     inkscape:current-layer="layer1"
     showgrid="false"
     fit-margin-top="0"
     fit-margin-left="0"
     fit-margin-right="0"
     fit-margin-bottom="0"
     inkscape:window-width="1280"
     inkscape:window-height="744"
     inkscape:window-x="-4"
     inkscape:window-y="-4"
     inkscape:window-maximized="1" />
  <metadata
     id="metadata325">
    <rdf:RDF>
      <cc:Work
         rdf:about="">
        <dc:format>image/svg+xml</dc:format>
        <dc:type
           rdf:resource="http://purl.org/dc/dcmitype/StillImage" />
        <dc:title></dc:title>
      </cc:Work>
    </rdf:RDF>
  </metadata>
  <g
     inkscape:label="Layer 1"
     inkscape:groupmode="layer"
     id="layer1"
     transform="translate(70.22948,-272.35052)">
    <g
       id="g407"
       transform="translate(1.0000032,-1.0000147)">
      <path
         id="path330"
         d="m 47.33547,319.67101 a 12.080875,12.080875 0 0 0 -4.146021,-3.88673 10.398125,10.398125 0 0 0 3.116792,-3.25967 q 1.169458,-1.94204 1.172104,-4.74662 a 10.63625,10.63625 0 0 0 -0.915459,-4.45823 10.080625,10.080625 0 0 0 -2.542645,-3.43958 11.467042,11.467042 0 0 0 -3.889375,-2.20134 15.165916,15.165916 0 0 0 -4.945063,-0.77258 H 15.463762 v 40.02881 h 20.865041 a 15.012458,15.012458 0 0 0 5.117042,-0.83079 11.840104,11.840104 0 0 0 3.96875,-2.31246 10.207625,10.207625 0 0 0 2.574396,-3.61421 11.641667,11.641667 0 0 0 0.915458,-4.68577 q 0.0026,-3.42106 -1.568979,-5.82083 z M 22.895907,303.20599 h 11.718396 q 2.57175,0 4.003146,1.23031 1.431396,1.23031 1.42875,3.63008 0,2.39713 -1.42875,3.77296 -1.42875,1.37584 -4.003146,1.37054 H 22.895907 Z m 17.234959,25.92916 q -1.341438,1.51607 -4.373563,1.51607 H 22.895907 v -11.15219 h 12.861396 q 2.973917,0 4.347104,1.6854 a 6.1991874,6.1991874 0 0 1 1.370542,4.03225 q 0,2.40241 -1.344083,3.9026 z"
         inkscape:connector-curvature="0"
         style="fill:#000000;stroke-width:0.26458332" />
      <path
         id="path332"
         d="m 0.7688036,336.59111 a 15.345833,15.345833 0 0 0 5.2308124,-3.28612 14.210771,14.210771 0 0 0 3.286125,-4.91596 15.904104,15.904104 0 0 0 1.145646,-6.0325 V 296.91684 H 3.0098244 v 25.43969 a 10.548937,10.548937 0 0 1 -0.6693958,3.85233 7.9374999,7.9374999 0 0 1 -1.85208332,2.8575 8.1306457,8.1306457 0 0 1 -2.88660418,1.80182 11.490854,11.490854 0 0 1 -7.4877082,0 8.1412291,8.1412291 0 0 1 -2.8892499,-1.80182 8.0036457,8.0036457 0 0 1 -1.852083,-2.8575 10.607146,10.607146 0 0 1 -0.656167,-3.86027 v -25.43175 h -7.442729 v 25.43969 a 15.954375,15.954375 0 0 0 1.143,6.0325 14.210771,14.210771 0 0 0 3.286125,4.91596 15.433146,15.433146 0 0 0 5.204354,3.28612 20.595166,20.595166 0 0 0 13.8615206,0"
         inkscape:connector-curvature="0"
         style="fill:#000000;stroke-width:0.26458332" />
      <path
         id="path334"
         d="m -49.078696,336.93507 9.091083,-17.43604 q 0.79375,-1.48431 1.426105,-2.80194 0.632354,-1.31762 1.201208,-2.60085 0.5715,-1.28588 1.116542,-2.62996 0.545041,-1.34408 1.172104,-2.8284 h 0.227541 q -0.116416,1.5875 -0.227541,3.00038 c -0.07937,0.93398 -0.134938,1.83885 -0.171979,2.71462 -0.03704,0.87577 -0.06615,1.7833 -0.08731,2.71727 -0.02117,0.93398 -0.0291,1.93411 -0.0291,3.00038 v 16.86454 h 7.432146 v -40.01823 h -8.28675 l -7.776104,15.20561 q -0.79375,1.54781 -1.457854,2.86014 c -0.439209,0.87577 -0.85725,1.73567 -1.256771,2.57175 -0.399521,0.83609 -0.79375,1.69598 -1.172104,2.5744 -0.378355,0.87841 -0.79375,1.80975 -1.201209,2.79929 q -0.629708,-1.48167 -1.201208,-2.80458 -0.5715,-1.32292 -1.172104,-2.5744 c -0.399521,-0.83608 -0.820209,-1.69598 -1.256771,-2.57175 -0.436563,-0.87577 -0.923396,-1.82827 -1.457854,-2.86015 l -7.776104,-15.20031 h -8.28675 v 40.01823 h 7.4295 v -16.86454 q 0,-1.5875 -0.02646,-3.00038 -0.02646,-1.41287 -0.08731,-2.71727 -0.05556,-1.32291 -0.171979,-2.71462 -0.116417,-1.39171 -0.227542,-3.00038 h 0.227542 q 0.5715,1.48432 1.143,2.8284 0.5715,1.34408 1.145646,2.62996 c 0.378354,0.85725 0.78052,1.72508 1.198562,2.60085 0.418042,0.87577 0.896938,1.8124 1.42875,2.80194 z"
         inkscape:connector-curvature="0"
         style="fill:#000000;stroke-width:0.26458332" />
      <rect
         id="rect336"
         height="40.01823"
         width="7.4321456"
         y="296.91684"
         x="53.706631"
         style="fill:#000000;stroke-width:0.26458332" />
      <circle
         cx="132.52336"
         cy="305.60046"
         r="8.765646"
         id="circle338"
         style="fill:#000000;stroke-width:0.26458332" />
      <circle
         cx="87.382805"
         cy="305.60046"
         r="8.765646"
         id="circle340"
         style="fill:#000000;stroke-width:0.26458332" />
      <circle
         cx="109.95441"
         cy="305.60046"
         r="8.765646"
         id="circle342"
         style="fill:#000000;stroke-width:0.26458332" />
      <circle
         cx="87.382805"
         cy="283.11618"
         r="8.765646"
         id="circle344"
         style="fill:#000000;stroke-width:0.26458332" />
      <circle
         cx="109.95441"
         cy="283.11618"
         r="8.765646"
         id="circle346"
         style="fill:#000000;stroke-width:0.26458332" />
      <circle
         cx="87.382805"
         cy="328.0874"
         r="8.765646"
         id="circle348"
         style="fill:#000000;stroke-width:0.26458332" />
      <circle
         cx="109.95441"
         cy="328.0874"
         r="8.765646"
         id="circle350"
         style="fill:#000000;stroke-width:0.26458332" />
    </g>
  </g>
</svg>
