<?xml version="1.0" encoding="utf-8"?>
<!-- Generator: Adobe Illustrator 24.0.2, SVG Export Plug-In . SVG Version: 6.00 Build 0)  -->
<svg version="1.1" id="Layer_1" xmlns="http://www.w3.org/2000/svg" xmlns:xlink="http://www.w3.org/1999/xlink" x="0px" y="0px"
	 viewBox="0 0 901.6 272.1" style="enable-background:new 0 0 901.6 272.1;" xml:space="preserve">
<style type="text/css">
	.st0{fill:url(#SVGID_1_);}
	.st1{fill:url(#SVGID_2_);}
	.st2{fill:#0088E6;}
	.st3{display:none;}
	.st4{display:inline;enable-background:new    ;}
	.st5{clip-path:url(#SVGID_4_);}
	.st6{clip-path:url(#SVGID_6_);fill:url(#SVGID_7_);}
	.st7{clip-path:url(#SVGID_9_);}
	.st8{clip-path:url(#SVGID_11_);fill:url(#SVGID_12_);}
	.st9{clip-path:url(#SVGID_14_);}
	.st10{clip-path:url(#SVGID_16_);fill:#0088E6;}
	.st11{clip-path:url(#SVGID_18_);fill:#0088E6;}
	.st12{clip-path:url(#SVGID_20_);fill:#0088E6;}
	.st13{clip-path:url(#SVGID_22_);fill:#0088E6;}
	.st14{clip-path:url(#SVGID_24_);fill:#0088E6;}
	.st15{clip-path:url(#SVGID_26_);fill:#0088E6;}
	.st16{clip-path:url(#SVGID_28_);fill:#0088E6;}
	.st17{clip-path:url(#SVGID_30_);fill:#0088E6;}
	.st18{clip-path:url(#SVGID_32_);fill:#0088E6;}
	.st19{clip-path:url(#SVGID_34_);fill:#0088E6;}
	.st20{clip-path:url(#SVGID_36_);fill:#0088E6;}
</style>
<g id="Layer_1_1_">
	
		<linearGradient id="SVGID_1_" gradientUnits="userSpaceOnUse" x1="408.6389" y1="785.3171" x2="408.6389" y2="587.1934" gradientTransform="matrix(1 0 0 1 0 -518)">
		<stop  offset="0" style="stop-color:#0072FF"/>
		<stop  offset="1" style="stop-color:#0099FF"/>
	</linearGradient>
	<path class="st0" d="M744.2,60.3c-37.3,0-54.3,19-54.3,19v-15h-86.5v132.5c0,0-9.8,4.3-16.5,2.5s-6.7-11.3-6.7-11.3V64.3H494v17.8
		c0,0-14.8-15.8-32.3-19.2c-26.4-5-60.5-1.7-88.5,32.8s-19.8,86.5-19.8,86.5s-23.3,14.2-41.7,14.2c-18.3,0-17.3-16.2-17.3-16.2V130
		h57V64.3h-58V15h-85.7v140.2c0,0-4.6-28.4-70.5-48.8c-32.4-10-54.7-12.8-50.8-27c3.2-11.7,22.5-10.7,22.5-10.7
		c39.3,0,78.8,26.4,78.8,26.4V15.7c0,0-5.5-2.5-14.8-5.7C145.3,0.9,82.2-12.3,28.7,24.2C3.1,46.1-2.4,76.8,0.8,101.4
		C2.7,114,7.1,124.9,13,132c19.2,22.7,62.5,32.3,82.7,36.7c20.2,4.3,30.8,9.3,30.8,19.8S113.4,206,83,201.2
		C52.7,196.3,23.7,176,23.7,176l-21,72.7c0,0,49.8,29.5,122.7,21.3c72.8-8.2,83.8-63,83.8-63c0.3-5.3-3.5,58.3,65.3,64.5
		c61.2,5.5,104.3-28.7,104.3-28.7s18.7,28.5,63.3,28.5c44.7,0,58.7-27.8,58.7-27.8s6,27.8,52.3,27.8c42.5,0,50.3-7,50.3-7v3h86.3
		V146c0,0,13.4-10.6,29.8-4.8c13.1,4.7,12.8,21.9,12.8,21.9v104.2h85V136.7c0,0-1.7-24.5-11.2-41.8S781.5,60.3,744.2,60.3z
		 M494.3,189.3c0,0-8.5,8-26.5,8s-28.5-13.3-28.5-30.7c0-17.3,10.5-31.8,28.5-31.8s26.5,8,26.5,8V189.3z"/>
	
		<linearGradient id="SVGID_2_" gradientUnits="userSpaceOnUse" x1="864.6" y1="786.7" x2="864.6" y2="517.2989" gradientTransform="matrix(1 0 0 1 0 -518)">
		<stop  offset="0" style="stop-color:#0072FF"/>
		<stop  offset="1" style="stop-color:#0099FF"/>
	</linearGradient>
	<path class="st1" d="M863.3,197.7c-31.7,0-35.8,25.4-35.8,37.8c0,12,5.8,33.2,36.6,33.2s37.6-20.4,37.6-34.9
		C901.6,219.2,894.9,197.7,863.3,197.7z"/>
</g>
<g id="Layer_3">
	<g>
		<path class="st2" d="M388,252.6c-1.4-1.7-2.1-2.8-2.1-2.8s-0.2,0.1-0.5,0.4C386.2,251,387,251.8,388,252.6z"/>
		<path class="st2" d="M696.9,86.3c0,0,17-19,54.3-19c21.9,0,36.3,5.9,46.3,14.3c-10.1-11.9-25.7-21.3-53.3-21.3
			c-23.7,0-37.4,6.3-47.3,13.2c-4.2,2.9-7,5.8-7,5.8L696.9,86.3z"/>
		<polygon class="st2" points="300.4,71.3 351.4,71.3 351.4,64.3 293.4,64.3 		"/>
		<path class="st2" d="M494.3,189.3c0,0-8.5,8-26.5,8c-6.4,0-14.3-3-21.3-9.2c4.8,7.1,17.9,16.2,28.3,16.2c18,0,26.5-8,26.5-8v-46.5
			c0,0-2.9-4-7-6.9V189.3z"/>
		<path class="st2" d="M594.9,205.3c6.7,1.8,15.5-1.5,15.5-1.5V71.3h79.5v-7h-86.5v132.5c0,0-11.6,3-18.2,1.8
			C587.8,201.3,591.3,204.4,594.9,205.3z"/>
		<path class="st2" d="M358.4,123.7c3.2-9.6,7.9-19.3,14.8-27.8c28-34.5,62.1-37.8,88.5-32.8c17.6,3.3,32.3,19.2,32.3,19.2v-18h86.2
			v7H501v17.8c0,0-14.8-15.8-32.3-19.2c-26.4-5-60.5-1.7-88.5,32.8s-19.8,86.5-19.8,86.5s-23.3,14.2-41.7,14.2
			c-9.6,0-13.9-4.5-15.8-8.7c2.3,1,5.2,1.7,8.8,1.7c18.3,0,41.7-14.2,41.7-14.2s-3.3-23.7,1.5-45.2
			C356.6,128.5,358.4,123.7,358.4,123.7z"/>
		<path class="st2" d="M732.5,267.3h7v-97.2c0,0,0-18.2-14.9-26.1c8.1,6.3,7.9,19.1,7.9,19.1V267.3z"/>
		<path class="st2" d="M19.7,138.6c-5.8-7.1-10.1-17.9-11.9-30.2C4.6,83.8,10.1,53,35.6,31.1C89.2-5.3,152.3,7.9,179.9,17
			c3,1,5.6,2,7.8,2.8v-4.1c0,0-5.5-2.5-14.8-5.7C145.3,0.9,82.2-12.3,28.7,24.2C3.1,46.1-2.4,76.8,0.8,101.4
			C2.7,114,7.1,124.9,13,132C15,134.3,17.3,136.5,19.7,138.6z"/>
		<path class="st2" d="M30.7,183c0,0,29,20.3,59.3,25.2c30.3,4.8,43.5-2.2,43.5-12.7c0-5.3-4.9-11-9.1-14.4c0.8,1.6,2.1,5.4,2.1,7.4
			c0,10.5-13.2,17.5-43.5,12.7C52.7,196.3,23.7,176,23.7,176l-21,72.7c0,0,2.7,1.6,7.9,4L30.7,183z"/>
		<path class="st2" d="M214.7,169.2V22h78.7v-7h-85.7v139.4C212.4,161.8,214.7,169.2,214.7,169.2z"/>
	</g>
	<path class="st2" d="M834.4,242.5c0-12.4,4.2-37.8,35.8-37.8c11.1,0,19.1,2.7,24.9,6.7c-5.5-7.8-15.2-13.7-31.9-13.7
		c-31.7,0-35.8,25.4-35.8,37.8c0,7.9,2.5,19.7,12.9,26.9C835.7,255.8,834.4,248.1,834.4,242.5z"/>
</g>
<g id="Layer_2_1_" class="st3">
	<g class="st4">
		<g>
			<g>
				<defs>
					<rect id="SVGID_3_" x="-244.4" y="-72.9" width="1386.4" height="418.4"/>
				</defs>
				<clipPath id="SVGID_4_">
					<use xlink:href="#SVGID_3_"  style="overflow:visible;"/>
				</clipPath>
				<g class="st5">
					<g>
						<defs>
							<path id="SVGID_5_" d="M431,183.4c0-26.7,16.1-49,43.8-49c27.7,0,40.7,12.3,40.7,12.3v71.5c0,0-13.1,12.3-40.7,12.3
								C447.2,230.5,431,210,431,183.4 M-200.3-35.7c-39.4,33.7-47.8,81-42.8,118.8c2.9,19.3,9.6,36.2,18.7,47
								c29.5,34.9,96.1,49.7,127.1,56.4s47.4,14.4,47.4,30.5s-20.2,26.9-66.9,19.5c-46.6-7.4-91.2-38.7-91.2-38.7l-32.3,111.7
								c0,0,76.6,45.4,188.6,32.8s128.9-96.9,128.9-96.9c0.5-8.2-5.5,89.7,100.5,99.2c7,0.6,13.8,0.9,20.4,0.9h0.2
								c83,0,139.8-45,139.8-45s28.7,43.8,97.4,43.8s90.3-42.7,90.3-42.7s9.2,42.7,80.4,42.7c65.4,0,77.4-10.8,77.4-10.8v4.6h132.8
								V151.6c0,0,20.6-16.3,45.9-7.3c20,7.2,19.7,33.7,19.7,33.7v160.2h130.7V137.3c0,0-2.6-37.7-17.2-64.3
								c-14.6-26.7-38.2-53.1-95.6-53.1c-57.4,0-83.5,29.2-83.5,29.2V26h-133v203.7c0,0-15.1,6.7-25.4,3.8
								c-10.3-2.8-10.3-17.4-10.3-17.4V26H515.2v27.4c0,0-22.7-24.3-49.7-29.5c-40.5-7.7-93-2.6-136.1,50.5s-30.5,133-30.5,133
								s-35.9,21.8-64.1,21.8s-26.7-24.9-26.7-24.9v-77.1h87.6V26h-89.2v-75.9H74.9v215.5c0,0-7.1-43.7-108.4-75.1
								c-49.8-15.4-84.2-19.7-78.2-41.5c5-18,34.6-16.5,34.6-16.5C-16.6,32.5,44.1,73,44.1,73V-49c0,0-8.5-3.9-22.8-8.7
								C0.3-64.6-34-73.1-73.4-73.1C-113.4-72.9-158.8-64.1-200.3-35.7"/>
						</defs>
						<clipPath id="SVGID_6_">
							<use xlink:href="#SVGID_5_"  style="overflow:visible;"/>
						</clipPath>
						
							<linearGradient id="SVGID_7_" gradientUnits="userSpaceOnUse" x1="143.3351" y1="260.0346" x2="144.8728" y2="260.0346" gradientTransform="matrix(0 -198.1237 198.1237 0 -51136.7109 28736.2715)">
							<stop  offset="0" style="stop-color:#0072FF"/>
							<stop  offset="1" style="stop-color:#0099FF"/>
						</linearGradient>
						<rect x="-248.1" y="-72.9" class="st6" width="1260.8" height="427.7"/>
					</g>
				</g>
			</g>
			<g>
				<defs>
					<rect id="SVGID_8_" x="-244.4" y="-72.9" width="1386.4" height="418.4"/>
				</defs>
				<clipPath id="SVGID_9_">
					<use xlink:href="#SVGID_8_"  style="overflow:visible;"/>
				</clipPath>
				<g class="st7">
					<g>
						<defs>
							<path id="SVGID_10_" d="M1027.9,289.2c0,18.5,9,51.1,56.3,51.1s57.8-31.3,57.8-53.7c0-22.4-10.3-55.6-58.9-55.6
								C1034.3,231.1,1027.9,270.2,1027.9,289.2"/>
						</defs>
						<clipPath id="SVGID_11_">
							<use xlink:href="#SVGID_10_"  style="overflow:visible;"/>
						</clipPath>
						
							<linearGradient id="SVGID_12_" gradientUnits="userSpaceOnUse" x1="143.7726" y1="261.1798" x2="145.3103" y2="261.1798" gradientTransform="matrix(0 -269.401 269.401 0 -69277.2031 39072.8789)">
							<stop  offset="0" style="stop-color:#0072FF"/>
							<stop  offset="1" style="stop-color:#0099FF"/>
						</linearGradient>
						<rect x="1027.9" y="231.1" class="st8" width="114" height="109.3"/>
					</g>
				</g>
			</g>
			<g>
				<defs>
					<rect id="SVGID_13_" x="-244.4" y="-72.9" width="1386.4" height="418.4"/>
				</defs>
				<clipPath id="SVGID_14_">
					<use xlink:href="#SVGID_13_"  style="overflow:visible;"/>
				</clipPath>
				<g class="st9">
					<g>
						<defs>
							<rect id="SVGID_15_" x="-244.4" y="-72.9" width="1386.4" height="418.4"/>
						</defs>
						<clipPath id="SVGID_16_">
							<use xlink:href="#SVGID_15_"  style="overflow:visible;"/>
						</clipPath>
						<path class="st10" d="M352.2,315.6c-2.2-2.6-3.3-4.3-3.3-4.3s-0.3,0.2-0.8,0.6C349.4,313,350.7,314.3,352.2,315.6"/>
					</g>
					<g>
						<defs>
							<rect id="SVGID_17_" x="-244.4" y="-72.9" width="1386.4" height="418.4"/>
						</defs>
						<clipPath id="SVGID_18_">
							<use xlink:href="#SVGID_17_"  style="overflow:visible;"/>
						</clipPath>
						<path class="st11" d="M827.1,59.9c0,0,26.1-29.2,83.5-29.2c33.7,0,55.8,9.1,71.2,22.1c-15.5-18.3-39.5-32.8-82-32.8
							c-36.4,0-57.6,9.7-72.8,20.3c-6.4,4.5-10.8,8.9-10.8,8.9L827.1,59.9z"/>
					</g>
					<g>
						<defs>
							<rect id="SVGID_19_" x="-244.4" y="-72.9" width="1386.4" height="418.4"/>
						</defs>
						<clipPath id="SVGID_20_">
							<use xlink:href="#SVGID_19_"  style="overflow:visible;"/>
						</clipPath>
						<polygon class="st12" points="217.4,36.8 295.8,36.8 295.8,26 206.7,26 						"/>
					</g>
					<g>
						<defs>
							<rect id="SVGID_21_" x="-244.4" y="-72.9" width="1386.4" height="418.4"/>
						</defs>
						<clipPath id="SVGID_22_">
							<use xlink:href="#SVGID_21_"  style="overflow:visible;"/>
						</clipPath>
						<path class="st13" d="M515.6,218.2c0,0-13.1,12.3-40.7,12.3c-9.8,0-22-4.6-32.8-14.1c7.4,10.9,27.5,24.9,43.5,24.9
							c27.7,0,40.7-12.3,40.7-12.3v-71.5c0,0-4.4-6.1-10.8-10.6L515.6,218.2L515.6,218.2z"/>
					</g>
					<g>
						<defs>
							<rect id="SVGID_23_" x="-244.4" y="-72.9" width="1386.4" height="418.4"/>
						</defs>
						<clipPath id="SVGID_24_">
							<use xlink:href="#SVGID_23_"  style="overflow:visible;"/>
						</clipPath>
						<path class="st14" d="M670.3,242.8c10.3,2.8,23.8-2.3,23.8-2.3V36.8h122.2V26h-133v203.7c0,0-17.8,4.6-27.9,2.8
							C659.4,236.7,664.9,241.4,670.3,242.8"/>
					</g>
					<g>
						<defs>
							<rect id="SVGID_25_" x="-244.4" y="-72.9" width="1386.4" height="418.4"/>
						</defs>
						<clipPath id="SVGID_26_">
							<use xlink:href="#SVGID_25_"  style="overflow:visible;"/>
						</clipPath>
						<path class="st15" d="M306.6,117.3c4.9-14.8,12.1-29.7,22.8-42.8C372.5,21.4,425,16.3,465.5,24c27,5.1,49.7,29.5,49.7,29.5V26
							h132.5v10.8H526v27.4c0,0-22.7-24.3-49.7-29.5c-40.5-7.7-93-2.6-136.1,50.5s-30.5,133-30.5,133S273.8,240,245.6,240
							c-14.8,0-21.4-6.8-24.3-13.4c3.5,1.6,7.9,2.6,13.6,2.6c28.2,0,64.1-21.8,64.1-21.8s-5-36.4,2.3-69.5
							C303.9,124.7,306.6,117.3,306.6,117.3"/>
					</g>
					<g>
						<defs>
							<rect id="SVGID_27_" x="-244.4" y="-72.9" width="1386.4" height="418.4"/>
						</defs>
						<clipPath id="SVGID_28_">
							<use xlink:href="#SVGID_27_"  style="overflow:visible;"/>
						</clipPath>
						<path class="st16" d="M882,338.2h10.8V188.8c0,0,0-27.9-22.9-40.2C882.3,158.3,882,178,882,178V338.2z"/>
					</g>
					<g>
						<defs>
							<rect id="SVGID_29_" x="-244.4" y="-72.9" width="1386.4" height="418.4"/>
						</defs>
						<clipPath id="SVGID_30_">
							<use xlink:href="#SVGID_29_"  style="overflow:visible;"/>
						</clipPath>
						<path class="st17" d="M-214.1,140.3c-8.9-10.8-15.5-27.5-18.3-46.4c-5-37.8,3.5-85.2,42.8-118.8
							C-107.3-81-10.2-60.6,32.1-46.7c4.7,1.6,8.7,3,12,4.3v-6.4c0,0-8.5-3.9-22.8-8.7C-20.9-71.4-118-91.8-200.3-35.7
							c-39.4,33.7-47.8,81-42.8,118.8c2.9,19.3,9.6,36.2,18.7,47C-221.4,133.7-217.9,137.1-214.1,140.3"/>
					</g>
					<g>
						<defs>
							<rect id="SVGID_31_" x="-244.4" y="-72.9" width="1386.4" height="418.4"/>
						</defs>
						<clipPath id="SVGID_32_">
							<use xlink:href="#SVGID_31_"  style="overflow:visible;"/>
						</clipPath>
						<path class="st18" d="M-197.3,208.5c0,0,44.6,31.3,91.2,38.7s66.9-3.3,66.9-19.5c0-8.2-7.5-16.9-14-22.1
							c1.2,2.5,3.3,8.3,3.3,11.4c0,16.1-20.2,26.9-66.9,19.5c-46.6-7.4-91.2-38.7-91.2-38.7l-32.3,111.7c0,0,4.2,2.5,12.1,6.1
							L-197.3,208.5z"/>
					</g>
					<g>
						<defs>
							<rect id="SVGID_33_" x="-244.4" y="-72.9" width="1386.4" height="418.4"/>
						</defs>
						<clipPath id="SVGID_34_">
							<use xlink:href="#SVGID_33_"  style="overflow:visible;"/>
						</clipPath>
						<path class="st19" d="M85.7,187.2V-39.1h121v-10.8H74.9v214.3C82.1,176,85.7,187.2,85.7,187.2"/>
					</g>
					<g>
						<defs>
							<rect id="SVGID_35_" x="-244.4" y="-72.9" width="1386.4" height="418.4"/>
						</defs>
						<clipPath id="SVGID_36_">
							<use xlink:href="#SVGID_35_"  style="overflow:visible;"/>
						</clipPath>
						<path class="st20" d="M1038.7,300c0-19,6.4-58.2,55.1-58.2c17.1,0,29.4,4.1,38.2,10.3c-8.4-11.9-23.4-21.1-49-21.1
							c-48.7,0-55.1,39.1-55.1,58.2c0,12.1,3.8,30.3,19.8,41.4C1040.7,320.5,1038.7,308.7,1038.7,300"/>
					</g>
				</g>
			</g>
		</g>
	</g>
</g>
</svg>
